<?xml version="1.0" encoding="utf-8"?>
<!-- Generator: Adobe Illustrator 22.1.0, SVG Export Plug-In . SVG Version: 6.00 Build 0)  -->
<svg version="1.1" id="Camada_1" xmlns="http://www.w3.org/2000/svg" xmlns:xlink="http://www.w3.org/1999/xlink" x="0px" y="0px"
	 viewBox="0 0 504.5 70.1" style="enable-background:new 0 0 504.5 70.1;" xml:space="preserve">
<style type="text/css">
	.st0{display:none;fill:#B3B3B3;}
	.st1{fill:#B3B3B3;}
</style>
<g>
	<g>
		<path class="st0" d="M-54.3,0v-69.7h21.8h0c12,0,21.8,9.8,21.8,21.8v0v15.8c0,3.3,2.7,6,6,6h7.1h0c7.2,0,13.1,5.9,13.1,13.1v0V0
			L-54.3,0z"/>
		<path class="st0" d="M-54.3,0h69.7v-21.8v0c0-12-9.8-21.8-21.8-21.8h0h-15.8c-3.3,0-6-2.7-6-6v-7.1v0c0-7.2-5.9-13.1-13.1-13.1h0
			h-13.1L-54.3,0z"/>
		<g>
			<path class="st1" d="M123,69.1H94.8V21.7h10.7v38.8H123V69.1z"/>
			<path class="st1" d="M144.1,21.7V30h-4v30.9h4v8.3h-18.6v-8.3h4V30h-4v-8.3H144.1z"/>
			<path class="st1" d="M150.9,69.1V21.7h17.3c5.3,0,9.4,1,12.2,2.9c2.8,1.9,4.3,4.7,4.3,8.2c0,2.6-0.9,4.8-2.6,6.7
				c-1.7,1.9-3.9,3.3-6.6,4v0.1c3.4,0.4,6.1,1.7,8.1,3.7s3,4.6,3,7.6c0,4.3-1.6,7.8-4.7,10.3c-3.1,2.5-7.4,3.8-12.7,3.8H150.9z
				 M161.6,29.6v11.2h4.7c2.2,0,3.9-0.5,5.2-1.6c1.3-1.1,1.9-2.5,1.9-4.4c0-3.5-2.6-5.2-7.8-5.2H161.6z M161.6,48.7v12.5h5.8
				c2.5,0,4.4-0.6,5.8-1.7c1.4-1.1,2.1-2.7,2.1-4.7c0-1.9-0.7-3.4-2.1-4.5c-1.4-1.1-3.3-1.6-5.8-1.6H161.6z"/>
			<path class="st1" d="M234.1,69.1h-12.3l-7.4-12.2c-0.6-0.9-1.1-1.8-1.6-2.5s-1-1.4-1.5-1.9c-0.5-0.5-1.1-0.9-1.6-1.2
				c-0.6-0.3-1.2-0.4-1.8-0.4H205v18.2h-10.7V21.7h16.9c11.5,0,17.3,4.3,17.3,12.9c0,1.7-0.3,3.2-0.8,4.6c-0.5,1.4-1.2,2.7-2.1,3.8
				c-0.9,1.1-2,2.1-3.4,2.9c-1.3,0.8-2.8,1.5-4.4,1.9v0.1c0.7,0.2,1.4,0.6,2.1,1.1s1.3,1.1,1.9,1.7s1.2,1.4,1.8,2.1s1.1,1.5,1.5,2.2
				L234.1,69.1z M205,29.7v13.2h4.6c2.3,0,4.1-0.7,5.5-2c1.4-1.3,2.1-3,2.1-5c0-4.1-2.5-6.2-7.4-6.2H205z"/>
			<path class="st1" d="M280.2,69.1h-11.6l-3.4-10.5h-16.9L245,69.1h-11.6l17.3-47.4h12.7L280.2,69.1z M262.8,50.4l-5.1-15.9
				c-0.4-1.2-0.6-2.6-0.8-4.3h-0.3c-0.1,1.4-0.4,2.8-0.8,4.1l-5.2,16.1H262.8z"/>
			<path class="st1" d="M284,67.3V56.7c1.9,1.6,4,2.8,6.3,3.6c2.2,0.8,4.5,1.2,6.8,1.2c1.3,0,2.5-0.1,3.5-0.4c1-0.2,1.8-0.6,2.5-1
				c0.7-0.4,1.2-0.9,1.5-1.5c0.3-0.6,0.5-1.2,0.5-1.9c0-0.9-0.3-1.8-0.8-2.5s-1.3-1.4-2.2-2c-0.9-0.6-2-1.2-3.3-1.8
				s-2.6-1.2-4.1-1.8c-3.7-1.5-6.5-3.4-8.3-5.7c-1.8-2.2-2.7-4.9-2.7-8.1c0-2.5,0.5-4.6,1.5-6.4c1-1.8,2.3-3.2,4.1-4.4
				c1.7-1.1,3.7-2,5.9-2.5c2.2-0.5,4.6-0.8,7.1-0.8c2.5,0,4.7,0.1,6.6,0.4c1.9,0.3,3.7,0.8,5.3,1.4v9.9c-0.8-0.6-1.7-1-2.6-1.5
				c-0.9-0.4-1.9-0.8-2.9-1c-1-0.3-2-0.5-3-0.6c-1-0.1-1.9-0.2-2.8-0.2c-1.2,0-2.3,0.1-3.3,0.3c-1,0.2-1.8,0.6-2.5,1
				c-0.7,0.4-1.2,0.9-1.6,1.5c-0.4,0.6-0.6,1.2-0.6,2c0,0.8,0.2,1.5,0.6,2.1c0.4,0.6,1,1.2,1.8,1.8c0.8,0.6,1.7,1.1,2.8,1.7
				c1.1,0.5,2.3,1.1,3.7,1.7c1.9,0.8,3.6,1.6,5.1,2.5c1.5,0.9,2.8,1.9,3.9,3c1.1,1.1,1.9,2.4,2.5,3.9c0.6,1.4,0.9,3.1,0.9,5
				c0,2.6-0.5,4.9-1.5,6.7c-1,1.8-2.4,3.3-4.1,4.4c-1.7,1.1-3.7,1.9-6,2.4c-2.3,0.5-4.7,0.7-7.2,0.7c-2.6,0-5.1-0.2-7.4-0.7
				C287.7,68.8,285.7,68.2,284,67.3z"/>
		</g>
		<g>
			<path class="st1" d="M0,69.7V0h21.8h0c12,0,21.8,9.8,21.8,21.8v0v15.8c0,3.3,2.7,6,6,6h7.1h0c7.2,0,13.1,5.9,13.1,13.1v0v13.1
				L0,69.7z"/>
			<path class="st1" d="M69.7,57v-9v0c0-12-9.8-21.8-21.8-21.8h0h-4.4l-1.6,22L69.7,57z"/>
			<path class="st1" d="M0,69.7V0h13c7.2,0,13.2,5.9,13.2,13.2v7.1c0,3.3,2.7,5.9,5.9,5.9h11.6v11.5c0,3.3,2.7,5.9,5.9,5.9h7.2
				c7.2,0,13,5.8,13,13v13.2H0z"/>
		</g>
	</g>
	<g>
		<path class="st1" d="M355.8,69.9c-6.7,0-12.1-2.2-16.2-6.6c-4-4.4-6.1-10.2-6.1-17.3c0-7.6,2.1-13.7,6.2-18.3
			c4.1-4.5,9.7-6.8,16.8-6.8c6.5,0,11.8,2.2,15.8,6.6c4,4.4,6,10.2,6,17.3c0,7.7-2.1,13.9-6.2,18.4
			C368.1,67.7,362.7,69.9,355.8,69.9z M356.2,25.9c-5,0-9,1.8-12.1,5.4c-3.1,3.6-4.7,8.3-4.7,14.2c0,5.8,1.5,10.5,4.5,14.1
			c3,3.6,7,5.3,11.9,5.3c5.2,0,9.3-1.7,12.3-5.1c3-3.4,4.5-8.1,4.5-14.3c0-6.3-1.5-11.1-4.4-14.5C365.3,27.6,361.3,25.9,356.2,25.9z
			"/>
		<path class="st1" d="M403.7,23.7c-1.1-0.6-2.3-0.9-3.6-0.9c-3.8,0-5.7,2.4-5.7,7.2v5.2h7.9v4.6h-7.9v29.2H389V39.9h-5.8v-4.6h5.8
			v-5.5c0-3.5,1-6.4,3.1-8.4c2.1-2.1,4.6-3.1,7.7-3.1c1.7,0,3,0.2,3.9,0.6V23.7z"/>
		<path class="st1" d="M424.9,23.7c-1.1-0.6-2.3-0.9-3.6-0.9c-3.8,0-5.7,2.4-5.7,7.2v5.2h7.9v4.6h-7.9v29.2h-5.4V39.9h-5.8v-4.6h5.8
			v-5.5c0-3.5,1-6.4,3.1-8.4c2.1-2.1,4.6-3.1,7.7-3.1c1.7,0,3,0.2,3.9,0.6V23.7z"/>
		<path class="st1" d="M432.2,26.6c-1,0-1.8-0.3-2.5-1c-0.7-0.7-1-1.5-1-2.5c0-1,0.3-1.9,1-2.5c0.7-0.7,1.5-1,2.5-1
			c1,0,1.8,0.3,2.5,1s1,1.5,1,2.5c0,1-0.3,1.8-1,2.5C434,26.3,433.2,26.6,432.2,26.6z M434.8,69.1h-5.4V35.2h5.4V69.1z"/>
		<path class="st1" d="M468.9,67.6c-2.6,1.6-5.7,2.3-9.3,2.3c-4.8,0-8.7-1.6-11.7-4.7c-3-3.1-4.4-7.2-4.4-12.2
			c0-5.6,1.6-10.1,4.8-13.4s7.5-5.1,12.8-5.1c3,0,5.6,0.6,7.9,1.7v5.6c-2.5-1.8-5.2-2.6-8.1-2.6c-3.5,0-6.3,1.2-8.5,3.7
			c-2.2,2.5-3.3,5.7-3.3,9.8c0,4,1,7.1,3.1,9.4c2.1,2.3,4.9,3.4,8.4,3.4c3,0,5.7-1,8.3-2.9V67.6z"/>
		<path class="st1" d="M504.3,53.5h-23.9c0.1,3.8,1.1,6.7,3,8.7c1.9,2.1,4.6,3.1,8,3.1c3.8,0,7.3-1.3,10.5-3.8v5.1
			c-3,2.2-6.9,3.2-11.8,3.2c-4.8,0-8.5-1.5-11.3-4.6c-2.7-3.1-4.1-7.4-4.1-13c0-5.3,1.5-9.6,4.5-12.9s6.7-5,11.1-5s7.9,1.4,10.3,4.3
			c2.4,2.9,3.6,6.8,3.6,11.9V53.5z M498.7,48.9c0-3.1-0.8-5.6-2.3-7.3c-1.5-1.7-3.6-2.6-6.2-2.6c-2.6,0-4.7,0.9-6.5,2.7
			c-1.8,1.8-2.9,4.2-3.3,7.2H498.7z"/>
	</g>
</g>
<g>
</g>
<g>
</g>
<g>
</g>
<g>
</g>
<g>
</g>
</svg>
